<?xml version="1.0" encoding="iso-8859-1"?>
<!-- Generator: Adobe Illustrator 19.0.0, SVG Export Plug-In . SVG Version: 6.00 Build 0)  -->
<svg xmlns="http://www.w3.org/2000/svg" xmlns:xlink="http://www.w3.org/1999/xlink" version="1.1" id="Layer_1" x="0px" y="0px" viewBox="0 0 504.964 504.964" style="enable-background:new 0 0 504.964 504.964;" xml:space="preserve" width="512" height="512" fill="#111111">
<g>
	<path d="M497.141,268.504c-4.122-0.397-7.786,2.628-8.181,6.751c-5.234,54.691-29.552,106.246-68.472,145.167   c-38.502,38.497-87.39,62.038-141.376,68.078c-52.415,5.865-105.89-5.998-150.579-33.4c-3.533-2.167-8.149-1.058-10.314,2.473   s-1.058,8.149,2.473,10.314c39.583,24.271,85.637,37.077,132.116,37.077c9.322,0,18.665-0.516,27.973-1.557   c27.845-3.115,54.747-10.754,79.958-22.704c26.086-12.365,49.757-29.077,70.356-49.674c41.378-41.379,67.231-96.193,72.797-154.345   C504.287,272.561,501.264,268.899,497.141,268.504z"/>
	<path d="M257.399,433.657c12.101,0,21.944-9.844,21.944-21.945v-16.365c43.25-9.408,67.888-40.356,67.888-85.774   c0-51.358-32.018-72.337-67.888-86.451v-65.694c9.04,1.933,15.439,5.122,20.813,7.8c5.431,2.706,10.12,5.042,15.497,5.042   c15.833,0,24.589-17.523,24.589-29.636c0-21.912-31.354-32.245-60.898-34.858V93.254c0-12.101-9.844-21.945-21.944-21.945   c-12.101,0-21.945,9.844-21.945,21.945v14.147c-18.553,3.354-34.407,10.419-46.146,20.613   c-16.229,14.094-24.459,33.498-24.459,57.67c0,52.238,39.333,68.958,70.605,80.263v36.115c0,4.142,3.357,7.5,7.5,7.5   s7.5-3.358,7.5-7.5V260.67c0-3.169-1.992-5.997-4.978-7.063c-37.185-13.28-65.628-26.713-65.628-67.921   c0-48.81,40.143-61.313,64.071-64.421c3.737-0.485,6.534-3.669,6.534-7.438V93.254c0-3.83,3.115-6.945,6.945-6.945   c3.829,0,6.944,3.115,6.944,6.945v19.528c0,4.003,3.144,7.301,7.143,7.492c29.641,1.415,53.756,10.549,53.756,20.361   c0,4.471-3.623,14.636-9.589,14.636c-1.847,0-5.072-1.607-8.807-3.468c-7.55-3.762-17.89-8.914-34.239-10.587   c-2.109-0.218-4.215,0.472-5.79,1.894c-1.575,1.422-2.474,3.445-2.474,5.567v79.601c0,3.127,1.94,5.927,4.869,7.023   c31.887,11.943,63.019,27.515,63.019,74.272c0,40.053-21.875,65.681-61.596,72.165c-3.628,0.592-6.292,3.726-6.292,7.402v22.572   c0,3.83-3.115,6.945-6.944,6.945c-3.83,0-6.945-3.115-6.945-6.945v-21.075c0-4.026-3.18-7.334-7.202-7.494   c-19.814-0.787-38.423-6.243-52.397-15.362c-13.284-8.669-17.997-17.736-17.997-22.867c0-6.292,5.908-14.637,10.364-14.637   c2.033,0,6.177,3.523,10.185,6.93c9.417,8.007,23.647,20.108,48.688,22.997c2.126,0.247,4.253-0.43,5.85-1.852   c1.597-1.423,2.51-3.46,2.51-5.599v-20.688c0-4.142-3.357-7.5-7.5-7.5s-7.5,3.358-7.5,7.5v11.784   c-15.354-3.633-24.646-11.534-32.332-18.069c-6.628-5.636-12.352-10.503-19.9-10.503c-14.05,0-25.364,16.213-25.364,29.637   c0,22.428,31.511,48.544,77.597,52.747v14.051C235.454,423.812,245.298,433.657,257.399,433.657z"/>
	<path d="M247.73,144.288c-1.726-1.425-4-2.006-6.193-1.582c-24.41,4.695-37.854,18.58-37.854,39.095   c0,24.78,17.529,35.247,36.472,42.867c0.902,0.363,1.853,0.542,2.798,0.542c1.477,0,2.941-0.436,4.199-1.286   c2.064-1.395,3.302-3.723,3.302-6.214v-67.639C250.454,147.833,249.455,145.713,247.73,144.288z M235.454,206.103   c-10.944-5.731-16.771-12.422-16.771-24.302c0-4.168,0.001-15.723,16.771-21.938V206.103z"/>
	<path d="M267.289,357.059c1.322,1.011,2.927,1.542,4.555,1.542c0.658,0,1.319-0.086,1.968-0.263   c22.303-6.065,34.585-21.867,34.585-44.494c0-28.302-17.8-40.477-33.307-47.921c-2.322-1.115-5.056-0.96-7.24,0.413   c-2.182,1.373-3.506,3.771-3.506,6.348v78.417C264.343,353.437,265.432,355.64,267.289,357.059z M279.343,285.725   c9.853,7.2,14.053,15.902,14.053,28.119c0,12.313-4.616,20.98-14.053,26.262V285.725z"/>
	<path d="M421.521,132.042c0.177,0.012,0.352,0.019,0.526,0.019c3.905,0,7.2-3.026,7.475-6.981l1.992-28.732   c36.051,41.261,56.671,93.43,58.414,148.589c0.128,4.06,3.459,7.263,7.492,7.263c0.08,0,0.16-0.001,0.241-0.004   c4.14-0.131,7.39-3.593,7.259-7.733c-1.839-58.208-23.447-113.285-61.246-156.996l26.92,1.867c4.113,0.283,7.714-2.831,8.001-6.963   c0.286-4.132-2.831-7.714-6.964-8.001l-45.892-3.183c-4.119-0.284-7.715,2.831-8.001,6.963l-3.183,45.892   C414.271,128.173,417.388,131.755,421.521,132.042z"/>
	<path d="M83.574,372.922c-4.131-0.287-7.714,2.831-8.001,6.963l-1.992,28.735C35.722,365.356,15.04,310.514,15.04,252.486   c0-63.439,24.706-123.083,69.567-167.945c38.496-38.496,87.38-62.037,141.366-68.077c52.411-5.865,105.888,5.998,150.577,33.4   c3.533,2.167,8.149,1.058,10.314-2.473s1.058-8.149-2.473-10.314C336.871,7.938,280.013-4.677,224.305,1.557   c-27.845,3.115-54.746,10.754-79.955,22.704c-26.085,12.365-49.754,29.077-70.351,49.673C26.305,121.629,0.04,185.04,0.04,252.486   c0,61.251,21.666,119.169,61.367,165.01l-26.907-1.866c-4.132-0.292-7.714,2.831-8.001,6.963c-0.286,4.132,2.831,7.714,6.964,8.001   l45.892,3.183c0.177,0.012,0.352,0.019,0.526,0.019c3.905,0,7.2-3.026,7.475-6.981l3.183-45.892   C90.824,376.79,87.707,373.208,83.574,372.922z"/>
</g>















</svg>
